<?xml version="1.0" standalone="no"?>
<!DOCTYPE svg PUBLIC "-//W3C//DTD SVG 20010904//EN"
 "http://www.w3.org/TR/2001/REC-SVG-20010904/DTD/svg10.dtd">
<svg version="1.0" xmlns="http://www.w3.org/2000/svg"
 width="960.000000pt" height="960.000000pt" viewBox="0 0 960.000000 960.000000"
 preserveAspectRatio="xMidYMid meet">
<metadata>
Created by potrace 1.11, written by Peter Selinger 2001-2013
</metadata>
<g transform="translate(0.000000,960.000000) scale(0.100000,-0.100000)"
fill="#000000" stroke="none">
<path d="M4161 9579 c-1837 -253 -3348 -1514 -3926 -3274 -503 -1534 -191
-3237 827 -4505 907 -1132 2280 -1790 3733 -1790 2075 0 3910 1334 4560 3315
87 265 164 614 200 900 158 1275 -207 2572 -1008 3583 -769 970 -1896 1609
-3126 1772 -137 18 -204 20 -640 19 -414 -1 -506 -4 -620 -20z"/>
</g>
</svg>
